<?xml version="1.0" standalone="no"?><!DOCTYPE svg PUBLIC "-//W3C//DTD SVG 1.1//EN" "http://www.w3.org/Graphics/SVG/1.1/DTD/svg11.dtd"><svg class="icon" width="200px" height="200.00px" viewBox="0 0 1024 1024" version="1.1" xmlns="http://www.w3.org/2000/svg"><path d="M286.1 392.4s-23.9-117.2-171.8-226.3c0 0 105.7 194.5-10.2 232.9 0 0 74.1 60.5 33.2 106.1 0 0 56.2-67.4 119-23.5" fill="#A7BCC4" /><path d="M141 508.4l-7.6-6.5c0.1-0.1 0.5-0.6 1.1-1.3 7.5-8.9 10.7-18.6 9.9-29.8-2.6-34.1-43.1-67.6-43.5-67.9l-7-5.8 8.6-2.9c21.6-7.2 36.5-20.7 44.3-40.3 26.6-67.2-36.3-184.3-36.9-185.5l-10.7-19.8 18.1 13.4c77.1 56.9 120.2 116 142.7 155.6 24.6 43.1 30.7 72.5 31 73.7l-9.8 2 4.9-1-4.9 1c-0.1-0.3-6.2-29.4-30.1-71.2-20.4-35.6-57.8-87.6-122.8-139.1 5.7 12.4 13.2 30 19.8 50 17.3 52.4 20 94.3 8.1 124.6-7.9 19.9-22.2 34.4-42.5 43.1 12.4 11.6 38.5 39.4 40.8 69.2 0.4 4.6 0.1 9-0.6 13.2 5-3.7 10.7-7.5 17.1-10.8 30.4-15.8 60.9-14.1 88.2 5l-5.7 8.2c-24.3-17-50.4-18.5-77.6-4.5-17.9 9.2-30.6 22.5-33.8 26.2-0.4 0.5-0.8 0.8-1.1 1.2z"  /><path d="M104.1 399s139.9-12.9 159.1 54.7" fill="#A7BCC4" /><path d="M258.4 455.1c-17.8-62.9-152.5-51.2-153.8-51.1l-0.9-10c1.5-0.1 36-3.2 73.5 2 22.3 3.1 40.9 8.6 55.4 16.2 18.7 9.8 30.7 23.4 35.4 40.2l-9.6 2.7z"  /><path d="M279.3 370.4c-14.3-39-56-123.8-165-204.3l2 3.3S251 308.5 264.2 392.3" fill="#5991AA" /><path d="M259.2 393.1C246.5 311.7 114 174.2 112.7 172.8l-0.4-0.4-15.8-25.6 20.7 15.3c48 35.4 88.1 75.4 119.1 118.8 26.1 36.5 40.3 67.9 47.6 87.8l-9.4 3.5c-12.9-35-44.1-98-116.3-163.6 9.6 11.2 20.2 24 30.9 37.8 47.4 60.7 74.3 109.6 79.9 145.2l-9.8 1.5z"  /><path d="M748.5 392.4s23.9-117.2 171.8-226.3c0 0-105.7 194.5 10.2 232.9 0 0-74.1 60.5-33.2 106.1 0 0-56.2-67.4-119-23.5" fill="#A7BCC4" /><path d="M893.6 508.4c-0.3-0.4-0.6-0.7-0.9-1.1-3.3-3.6-15.9-16.9-33.8-26.2-27.2-14-53.3-12.5-77.6 4.5l-5.7-8.2c27.3-19.1 57.8-20.8 88.2-5 6.4 3.3 12.2 7.1 17.1 10.8-0.8-4.3-1-8.7-0.6-13.2 2.3-29.8 28.5-57.6 40.8-69.2-20.3-8.7-34.6-23.2-42.5-43.1-12-30.2-9.2-72.1 8.1-124.6 6.6-20 14.1-37.6 19.8-50-65.2 51.7-102.7 103.8-123.1 139.6-23.8 41.8-29.8 70.5-29.9 70.7l-9.8-2c0.3-1.2 6.4-30.6 31-73.7 22.6-39.6 65.6-98.7 142.7-155.6l18.1-13.3-10.7 19.8c-0.6 1.2-63.5 118.3-36.9 185.5 7.7 19.6 22.6 33.1 44.3 40.3l8.6 2.9-7 5.8c-0.4 0.3-40.9 33.8-43.5 67.9-0.9 11.2 2.4 20.9 9.9 29.8 0.7 0.7 1 1.2 1.1 1.3l-7.7 6.3z"  /><path d="M930.5 399s-139.9-12.9-159.1 54.7" fill="#A7BCC4" /><path d="M776.2 455.1l-9.6-2.7c4.8-16.8 16.7-30.3 35.4-40.2 14.5-7.6 33.1-13.1 55.4-16.2 37.5-5.2 72.1-2.1 73.5-2l-0.9 10c-1.3-0.2-136-11.8-153.8 51.1z"  /><path d="M755.3 370.4c14.3-39 56-123.8 165-204.3l-2 3.3S783.6 308.5 770.4 392.3" fill="#5991AA" /><path d="M775.4 393.1l-9.9-1.5c5.6-35.6 32.5-84.5 79.9-145.2 10.7-13.7 21.3-26.6 30.9-37.8-72.2 65.6-103.5 128.6-116.3 163.5l-9.4-3.5c7.3-19.9 21.5-51.2 47.6-87.8 31-43.4 71.1-83.4 119.1-118.8l20.7-15.3-15.8 25.6-0.4 0.4c-1.2 1.5-133.7 139.1-146.4 220.4z"  /><path d="M313.2 338.3s-39.6-113.7-7-148.9c19.3-20.8 4.8 31.9 63.2 67.9 24.4 15 35.8 74.2 35.8 74.2" fill="#A7BCC4" /><path d="M308.5 340c-1.7-4.8-40.2-117-6-153.9 3.3-3.6 7.4-7.1 12.2-6.2 5.6 1.1 7.8 6.7 11.1 15.3 5.6 14.5 14.9 38.7 46.2 58 25.9 16 37.6 75 38.1 77.5l-9.8 1.9c-3.1-15.9-15.1-59.6-33.5-70.9-34.2-21.1-44.7-48.3-50.3-62.9-1.2-3.1-2.7-6.9-3.7-8.6-0.6 0.4-1.5 1.2-2.9 2.7-12.2 13.2-14.8 41.9-7.5 83.2 5.7 32.1 15.5 60.3 15.6 60.6l-9.5 3.3z"  /><path d="M400.7 275.9s1.3-26.3-11.6-26c-12.9 0.4-76.8 59.5-91.5 64.8-14.7 5.3 12.4 23.9 12.4 23.9" fill="#5991AA" /><path d="M307.2 342.8c-6.1-4.2-20.1-14.9-18.9-24.4 0.3-2.2 1.7-6.2 7.6-8.4 5.8-2.1 23.4-16.1 38.8-28.5 30.9-24.7 46.3-36.4 54.2-36.6 3.7-0.1 7.1 1.3 9.8 4 7.7 7.8 7 25.3 6.9 27.2l-10-0.5 5 0.2-5-0.2c0.3-6.2-0.8-16.4-4.1-19.8-0.7-0.7-1.4-1-2.3-1-5.8 0.4-31.3 20.9-48.2 34.4-21.4 17.1-34.8 27.7-41.7 30.1-0.5 0.2-0.9 0.4-1 0.5 0.5 2.7 7.3 9.6 14.6 14.6l-5.7 8.4z"  /><path d="M731 338.3s41.2-113.2 9-148.8c-19-21.1-5.2 31.8-64.1 67-24.6 14.7-36.8 73.7-36.8 73.7" fill="#A7BCC4" /><path d="M735.7 340l-9.4-3.4c0.1-0.3 10.3-28.4 16.4-60.4 7.9-41.2 5.7-70-6.4-83.3-1.3-1.5-2.3-2.3-2.8-2.7-1.1 1.7-2.6 5.4-3.8 8.5-5.8 14.5-16.7 41.6-51.1 62.2-18.6 11.1-31.2 54.6-34.4 70.5l-9.8-2c0.5-2.5 13-61.4 39.1-77 31.6-18.9 41.2-42.9 47-57.3 3.4-8.5 5.7-14.1 11.3-15.1 4.8-0.9 8.8 2.7 12.1 6.3 33.6 37.3-6.5 149-8.2 153.7z"  /><path d="M643.9 279.5s-0.9-26.3 11.9-25.8c12.9 0.5 76 60.6 90.6 66 14.7 5.5-12.7 23.8-12.7 23.8" fill="#5991AA" /><path d="M736.5 347.7l-5.6-8.3c7.3-4.9 14.3-11.7 14.8-14.4-0.2-0.1-0.5-0.3-1-0.5-6.8-2.6-20.2-13.3-41.3-30.7-16.7-13.7-42-34.5-47.8-35-1 0-1.6 0.2-2.3 0.9-3.4 3.3-4.6 13.5-4.4 19.7l-10 0.4c-0.1-2-0.5-19.4 7.3-27.2 2.7-2.7 6.1-4 9.8-3.8 7.9 0.3 23.2 12.2 53.7 37.3 15.3 12.6 32.7 26.9 38.5 29.1 5.9 2.2 7.2 6.3 7.5 8.5 1.1 9.3-13 19.9-19.2 24z"  /><path d="M516.3 551.8m-300 0a300 300 0 1 0 600 0 300 300 0 1 0-600 0Z" fill="#5991AA" /><path d="M516.3 856.8c-81.5 0-158.1-31.7-215.7-89.3-57.6-57.6-89.3-134.2-89.3-215.7s31.7-158.1 89.3-215.7c57.6-57.6 134.2-89.3 215.7-89.3s158.1 31.7 215.7 89.3c57.6 57.6 89.3 134.2 89.3 215.7S789.6 709.9 732 767.5c-57.7 57.5-134.3 89.3-215.7 89.3z m0-600c-162.7 0-295 132.3-295 295s132.3 295 295 295 295-132.3 295-295-132.4-295-295-295z"  /><path d="M361.8 561m-58.9 0a58.9 58.9 0 1 0 117.8 0 58.9 58.9 0 1 0-117.8 0Z" fill="#365A66" /><path d="M670.7 561.4m-58.9 0a58.9 58.9 0 1 0 117.8 0 58.9 58.9 0 1 0-117.8 0Z" fill="#365A66" /><path d="M365.3 551.8m-55 0a55 55 0 1 0 110 0 55 55 0 1 0-110 0Z"  /><path d="M365.3 608.3c-31.2 0-56.5-25.3-56.5-56.5s25.3-56.5 56.5-56.5 56.5 25.3 56.5 56.5-25.4 56.5-56.5 56.5z m0-110c-29.5 0-53.5 24-53.5 53.5s24 53.5 53.5 53.5 53.5-24 53.5-53.5-24-53.5-53.5-53.5z"  /><path d="M341.5 536.5m-15.2 0a15.2 15.2 0 1 0 30.4 0 15.2 15.2 0 1 0-30.4 0Z" fill="#FFFFFF" /><path d="M404.4 569.3c2.4 4.2-1.2 14.8-13.9 22.3s-26.4 6.4-28.9 2.3 9.7-1.6 22.5-9 17.9-19.8 20.3-15.6z" fill="#565656" /><path d="M667 551.8m-55 0a55 55 0 1 0 110 0 55 55 0 1 0-110 0Z"  /><path d="M667 608.3c-31.2 0-56.5-25.3-56.5-56.5s25.3-56.5 56.5-56.5 56.5 25.3 56.5 56.5-25.3 56.5-56.5 56.5z m0-110c-29.5 0-53.5 24-53.5 53.5s24 53.5 53.5 53.5 53.5-24 53.5-53.5-24-53.5-53.5-53.5z"  /><path d="M643.3 536.5m-15.2 0a15.2 15.2 0 1 0 30.4 0 15.2 15.2 0 1 0-30.4 0Z" fill="#FFFFFF" /><path d="M706.2 569.3c2.4 4.2-1.2 14.8-13.9 22.3s-26.4 6.4-28.9 2.3 9.7-1.6 22.5-9 17.9-19.8 20.3-15.6z" fill="#565656" /><path d="M515.8 721.3l-0.7-0.1c-80.7-10.9-111.6-46.3-120.8-60.3-6.9 5.7-19.7 14.8-30.9 14.8-3.4 0-6.7-0.9-9.6-2.9-10.4-7.4-25.1-33.3-32.2-46.6-5.7 8.3-15.4 20-24.7 21.2-3.9 0.5-7.4-0.7-10.2-3.6-11.9-11.9-23.1-43.7-23.6-45l9.4-3.3c3 8.6 12.7 32.7 21.2 41.3 0.7 0.7 1.2 0.8 1.9 0.7 6-0.8 16.8-14.6 22.1-23.7l4.6-7.9 4.1 8.2c5.9 11.8 23.5 43.8 33.2 50.7 6.4 4.6 23.2-6.3 32.5-15.1l5.1-4.8 2.9 6.4c0 0.1 5.7 12 22.6 25.2 15.7 12.3 44.5 28.2 93 34.9 93.5-12.9 117.7-56.5 118-56.9l2.9-5.5 4.7 4c7.2 6.1 24.3 16.9 31.5 11.8 9.7-6.9 27.2-39 33.2-50.7l4.1-8.2 4.6 7.9c5.4 9.1 16.1 23 22.1 23.7 0.7 0.1 1.2 0 1.9-0.7 8.5-8.5 18.2-32.7 21.2-41.3l9.4 3.3c-0.5 1.3-11.7 33.2-23.6 45-2.8 2.8-6.4 4.1-10.2 3.6-9.3-1.2-19-12.9-24.7-21.2-7.1 13.3-21.9 39.2-32.2 46.6-3.2 2.3-6.9 3.2-10.6 3.2-10.7 0-22.4-7.4-28.8-12-9.5 12.7-41.5 46.3-122.9 57.3h-0.5z"  /><path d="M491.4 591.1c5.1 3.4 24.4 21.3 49.3-2.7 0.5-0.5 0.8-1.1 0.6-1.7-0.7-2.8-2.7-12-7.1-34.1-15.1-75.3-43.8-18.5-43.9 36.6 0 0.7 0.4 1.4 1.1 1.9z" fill="#A7BCC4" /><path d="M514.8 605.7c-11.9 0-20.8-6.6-24.9-9.5-0.5-0.4-1-0.7-1.3-0.9-2.1-1.4-3.3-3.7-3.3-6.1 0-17.5 2.9-36 7.8-50.8 3.9-11.7 10.8-26 21.2-27 11.1-1.1 19.2 12.1 24.8 40.2 4.4 21.9 6.4 31 7.1 33.9 0.5 2.3-0.2 4.7-2 6.5-10.9 10.4-20.9 13.7-29.4 13.7z m-19.5-18c0.2 0.1 0.4 0.3 0.5 0.4 6.8 5 20.9 15.3 40.2-2.2-1-4.3-3-13.7-6.7-32.4-6.5-32.6-14-32.3-14-32.2-6.8 0.6-19.7 29-20 66.4z"  /><path d="M507.1 528.9c-4.5 8.6-9.4 23.5-9.7 34.2 0 1.5 0.2 3 1.2 3.6l2 1.4c1.3 0.9 3.3 0 3.2-1.9-0.2-12.7 7.9-36 6.7-37.7-0.9-1.3-2.6-1.1-3.4 0.4z" fill="#E2F2F7" /></svg>